<svg id="visual" viewBox="0 0 900 600" width="900" height="600" xmlns="http://www.w3.org/2000/svg" xmlns:xlink="http://www.w3.org/1999/xlink" version="1.1"><rect x="0" y="0" width="900" height="600" fill="#f5f5f5"></rect><defs><linearGradient id="grad1_0" x1="33.3%" y1="100%" x2="100%" y2="0%"><stop offset="20%" stop-color="#f5f5f5" stop-opacity="1"></stop><stop offset="80%" stop-color="#f5f5f5" stop-opacity="1"></stop></linearGradient></defs><defs><linearGradient id="grad2_0" x1="0%" y1="100%" x2="66.7%" y2="0%"><stop offset="20%" stop-color="#f5f5f5" stop-opacity="1"></stop><stop offset="80%" stop-color="#f5f5f5" stop-opacity="1"></stop></linearGradient></defs><g transform="translate(900, 600)"><path d="M-189.3 0C-189 -14.3 -188.7 -28.6 -184.5 -42.1C-180.4 -55.6 -172.5 -68.3 -163.1 -78.5C-153.7 -88.8 -142.9 -96.7 -135.3 -107.9C-127.6 -119 -123.1 -133.5 -113.5 -142.3C-103.9 -151.1 -89.1 -154.4 -75.9 -157.7C-62.7 -161 -51.1 -164.4 -38.7 -169.6C-26.3 -174.9 -13.2 -182.1 0 -189.3L0 0Z" fill="#659B91"></path></g><g transform="translate(0, 0)"><path d="M189.3 0C190.3 15.1 191.4 30.2 184.5 42.1C177.7 54.1 163 62.9 155.9 75.1C148.7 87.2 149.2 102.7 143.1 114.1C136.9 125.5 124.2 132.9 112.9 141.5C101.5 150.1 91.5 159.8 79.4 164.9C67.3 169.9 53.2 170.3 39.6 173.5C26 176.8 13 183.1 0 189.3L0 0Z" fill="#659B91"></path></g></svg>