<svg id="visual" viewBox="0 0 900 600" width="900" height="600" xmlns="http://www.w3.org/2000/svg" xmlns:xlink="http://www.w3.org/1999/xlink" version="1.1"><rect x="0" y="0" width="900" height="600" fill="#f5f5f5"></rect><defs><linearGradient id="grad1_0" x1="33.3%" y1="100%" x2="100%" y2="0%"><stop offset="20%" stop-color="#f5f5f5" stop-opacity="1"></stop><stop offset="80%" stop-color="#f5f5f5" stop-opacity="1"></stop></linearGradient></defs><defs><linearGradient id="grad2_0" x1="0%" y1="100%" x2="66.7%" y2="0%"><stop offset="20%" stop-color="#f5f5f5" stop-opacity="1"></stop><stop offset="80%" stop-color="#f5f5f5" stop-opacity="1"></stop></linearGradient></defs><g transform="translate(900, 600)"><path d="M-216.3 0C-211.8 -18.8 -207.3 -37.6 -197 -52.8C-186.8 -68 -170.8 -79.7 -160.2 -92.5C-149.6 -105.3 -144.4 -119.2 -137.9 -137.9C-131.4 -156.6 -123.6 -180.2 -108.2 -187.3C-92.7 -194.5 -69.5 -185.3 -50.2 -187.4C-30.9 -189.5 -15.4 -202.9 0 -216.3L0 0Z" fill="#659b91"></path></g><g transform="translate(0, 0)"><path d="M216.3 0C212.3 18.9 208.4 37.8 198 53.1C187.7 68.4 171 80.1 159.3 92C147.7 103.9 141.2 116.1 135.1 135.1C128.9 154 123 179.7 108.2 187.3C93.3 195 69.5 184.6 50 186.4C30.4 188.2 15.2 202.3 0 216.3L0 0Z" fill="#659b91"></path></g></svg>